<svg width="20" height="20" viewBox="0 0 20 20" fill="none" xmlns="http://www.w3.org/2000/svg">
	<g id="hide">
		<g id="hide_icon">
			<path d="M8.68083 10L6.04308 7.36244C5.87317 7.18654 5.77916 6.95095 5.78129 6.70641C5.78341 6.46187 5.8815 6.22794 6.05444 6.05502C6.22737 5.8821 6.46131 5.78401 6.70587 5.78189C6.95043 5.77976 7.18604 5.87377 7.36195 6.04366L9.9997 8.68122L12.6374 6.04366C12.7235 5.95458 12.8264 5.88353 12.9402 5.83465C13.054 5.78577 13.1764 5.76004 13.3002 5.75896C13.4241 5.75789 13.5469 5.78149 13.6615 5.82838C13.7762 5.87528 13.8803 5.94453 13.9679 6.0321C14.0555 6.11967 14.1247 6.2238 14.1716 6.33842C14.2185 6.45304 14.2421 6.57585 14.241 6.69969C14.24 6.82353 14.2142 6.94591 14.1653 7.0597C14.1165 7.17349 14.0454 7.2764 13.9563 7.36244L11.3186 10L13.9563 12.6376C14.0454 12.7236 14.1165 12.8265 14.1653 12.9403C14.2142 13.0541 14.24 13.1765 14.241 13.3003C14.2421 13.4241 14.2185 13.547 14.1716 13.6616C14.1247 13.7762 14.0555 13.8803 13.9679 13.9679C13.8803 14.0555 13.7762 14.1247 13.6615 14.1716C13.5469 14.2185 13.4241 14.2421 13.3002 14.241C13.1764 14.24 13.054 14.2142 12.9402 14.1654C12.8264 14.1165 12.7235 14.0454 12.6374 13.9563L9.9997 11.3188L7.36195 13.9563C7.18604 14.1262 6.95043 14.2202 6.70587 14.2181C6.46131 14.216 6.22737 14.1179 6.05444 13.945C5.8815 13.7721 5.78341 13.5381 5.78129 13.2936C5.77916 13.0491 5.87317 12.8135 6.04308 12.6376L8.68083 10Z" fill="#DFDFDF" />
			<path d="M10 18.5714C11.1256 18.5714 12.2402 18.3497 13.2801 17.919C14.3201 17.4882 15.265 16.8568 16.0609 16.0609C16.8568 15.265 17.4882 14.3201 17.919 13.2801C18.3497 12.2402 18.5714 11.1256 18.5714 10C18.5714 8.87438 18.3497 7.75979 17.919 6.71986C17.4882 5.67992 16.8568 4.73502 16.0609 3.93908C15.265 3.14315 14.3201 2.51179 13.2801 2.08103C12.2402 1.65028 11.1256 1.42857 10 1.42857C7.72672 1.42857 5.54654 2.33163 3.93908 3.93908C2.33163 5.54654 1.42857 7.72672 1.42857 10C1.42857 12.2733 2.33163 14.4535 3.93908 16.0609C5.54654 17.6684 7.72672 18.5714 10 18.5714ZM10 20C7.34784 20 4.8043 18.9464 2.92893 17.0711C1.05357 15.1957 0 12.6522 0 10C0 7.34784 1.05357 4.8043 2.92893 2.92893C4.8043 1.05357 7.34784 0 10 0C12.6522 0 15.1957 1.05357 17.0711 2.92893C18.9464 4.8043 20 7.34784 20 10C20 12.6522 18.9464 15.1957 17.0711 17.0711C15.1957 18.9464 12.6522 20 10 20Z" fill="#DFDFDF" />
		</g>
	</g>
</svg>
	