<svg width="308" height="31" viewBox="0 0 308 31" fill="none" xmlns="http://www.w3.org/2000/svg"
  class="flex-grow-0 flex-shrink-0 w-[308px] h-[31px] relative" preserveAspectRatio="none">
  <g clip-path="url(#clip0_217_53)">
    <path
      d="M57.0686 7.26667V24.7667C57.0686 24.9 56.9686 25.0333 56.802 25.0333H54.9686C54.1352 25.0333 53.3352 24.6 52.8685 23.9L44.6016 11.1333L44.8682 17.5V24.8C44.8682 24.9333 44.7682 25.0667 44.6016 25.0667H42.2015C42.0681 25.0667 41.9348 24.9667 41.9348 24.8V7.26667C41.9348 7.13333 42.0348 7 42.2015 7H44.0015C44.8349 7 45.6349 7.43333 46.1016 8.13333L54.3686 20.8667L54.1019 14.5V7.26667C54.1019 7.13333 54.2019 7 54.3686 7H56.7686C56.9686 7 57.0686 7.1 57.0686 7.26667Z"
      fill="#262626"></path>
    <path
      d="M81.6692 25H79.1358C78.9691 25 78.8358 24.8333 78.9024 24.6667L85.636 7.23333C85.7027 7.1 85.836 7 85.9694 7H89.1695C89.3361 7 89.4695 7.1 89.5028 7.23333L96.2697 24.6667C96.3364 24.8333 96.2031 25 96.0364 25H93.503C93.403 25 93.303 24.9333 93.2696 24.8333L87.8361 10.5C87.7694 10.3 87.4361 10.3 87.3694 10.5L81.9359 24.8333C81.8692 24.9333 81.7692 25 81.6692 25Z"
      fill="#262626"></path>
    <path
      d="M113.937 24.6L108.87 18.1333C111.737 17.6 113.404 15.6667 113.404 12.7C113.404 9.3 111.204 7 107.27 7H100.203C100.003 7 99.8365 7.16667 99.8365 7.36667C99.8365 8.7 100.903 9.76667 102.237 9.76667H107.003C109.37 9.76667 110.504 10.9667 110.504 12.7333C110.504 14.5 109.404 15.7 107.003 15.7H100.27C100.07 15.7 99.9031 15.8667 99.9031 16.0667V24.7333C99.9031 24.8667 100.003 25 100.17 25H102.57C102.703 25 102.837 24.9 102.837 24.7333V18.3H105.603L110.004 24.0333C110.47 24.6667 111.204 25 112.004 25H113.837C113.97 25 114.07 24.7667 113.937 24.6Z"
      fill="#262626"></path>
    <path
      d="M74.0692 7H62.9022C62.7022 7 62.5688 7.13333 62.5688 7.33333C62.5688 8.66667 63.6689 9.76667 65.0022 9.76667H74.0692C74.2026 9.76667 74.3359 9.66667 74.3359 9.5V7.23333C74.3026 7.1 74.2026 7 74.0692 7ZM74.0692 22.2333H65.7356C65.6023 22.2333 65.4689 22.1333 65.4689 21.9667V17.4667C65.4689 17.3333 65.5689 17.2 65.7356 17.2H73.4359C73.5692 17.2 73.7026 17.1 73.7026 16.9333V14.6667C73.7026 14.5333 73.6026 14.4 73.4359 14.4H62.9355C62.7355 14.4 62.5688 14.5667 62.5688 14.7667V24.6C62.5688 24.8 62.7355 24.9667 62.9355 24.9667H74.0692C74.2026 24.9667 74.3359 24.8667 74.3359 24.7V22.4333C74.3026 22.3333 74.2026 22.2333 74.0692 22.2333Z"
      fill="#262626"></path>
    <path
      d="M24.0675 2.53333L17.8006 11.8333C17.3673 12.4667 18.2006 13.2333 18.8006 12.7L24.9675 7.33333C25.1342 7.2 25.3675 7.3 25.3675 7.53333V24.3C25.3675 24.5333 25.0675 24.6333 24.9342 24.4667L6.26688 2.13333C5.66686 1.4 4.80017 1 3.83347 1H3.16678C1.43338 1 0 2.43333 0 4.2V27.8C0 29.5667 1.43338 31 3.20011 31C4.30015 31 5.33352 30.4333 5.93354 29.4667L12.2004 20.1667C12.6338 19.5333 11.8004 18.7667 11.2004 19.3L5.03351 24.6333C4.86683 24.7667 4.63349 24.6667 4.63349 24.4333V7.7C4.63349 7.46667 4.9335 7.36667 5.06684 7.53333L23.7341 29.8667C24.3342 30.6 25.2342 31 26.1676 31H26.8343C28.601 31 30.0344 29.5667 30.0344 27.8V4.2C30.001 2.43333 28.5677 1 26.8009 1C25.7009 1 24.6675 1.56667 24.0675 2.53333Z"
      fill="#262626"></path>
    <path
      d="M156.917 24.0001L152.33 8.16008H154.376L157.896 20.6891L161.405 8.17108L163.462 8.16008L166.982 20.6891L170.491 8.16008H172.548L167.961 24.0001H166.003L162.439 11.5811L158.875 24.0001H156.917ZM178.26 24.3301C177.094 24.3301 176.075 24.0734 175.202 23.5601C174.337 23.0394 173.662 22.3171 173.178 21.3931C172.694 20.4618 172.452 19.3764 172.452 18.1371C172.452 16.8391 172.691 15.7171 173.167 14.7711C173.644 13.8178 174.308 13.0844 175.158 12.5711C176.016 12.0504 177.021 11.7901 178.172 11.7901C179.368 11.7901 180.383 12.0651 181.219 12.6151C182.063 13.1651 182.693 13.9498 183.111 14.9691C183.537 15.9884 183.72 17.2021 183.661 18.6101H181.681V17.9061C181.659 16.4468 181.362 15.3578 180.79 14.6391C180.218 13.9131 179.368 13.5501 178.238 13.5501C177.028 13.5501 176.108 13.9388 175.477 14.7161C174.847 15.4934 174.531 16.6081 174.531 18.0601C174.531 19.4608 174.847 20.5461 175.477 21.3161C176.108 22.0861 177.006 22.4711 178.172 22.4711C178.957 22.4711 179.639 22.2914 180.218 21.9321C180.798 21.5728 181.252 21.0558 181.582 20.3811L183.463 21.0301C183.001 22.0788 182.305 22.8928 181.373 23.4721C180.449 24.0441 179.412 24.3301 178.26 24.3301ZM173.871 18.6101V17.0371H182.649V18.6101H173.871ZM186.33 24.0001V7.83008H188.288V24.0001H186.33ZM196.594 24.3301C195.391 24.3301 194.368 24.0624 193.525 23.5271C192.689 22.9844 192.051 22.2401 191.611 21.2941C191.171 20.3481 190.943 19.2701 190.929 18.0601C190.943 16.8208 191.174 15.7318 191.622 14.7931C192.076 13.8471 192.725 13.1101 193.569 12.5821C194.412 12.0541 195.428 11.7901 196.616 11.7901C197.87 11.7901 198.948 12.0981 199.85 12.7141C200.759 13.3301 201.368 14.1734 201.676 15.2441L199.74 15.8271C199.49 15.1378 199.083 14.6024 198.519 14.2211C197.961 13.8398 197.32 13.6491 196.594 13.6491C195.78 13.6491 195.109 13.8398 194.581 14.2211C194.053 14.5951 193.66 15.1158 193.404 15.7831C193.147 16.4431 193.015 17.2021 193.008 18.0601C193.022 19.3801 193.327 20.4471 193.921 21.2611C194.522 22.0678 195.413 22.4711 196.594 22.4711C197.371 22.4711 198.016 22.2951 198.53 21.9431C199.043 21.5838 199.432 21.0668 199.696 20.3921L201.676 20.9091C201.265 22.0164 200.623 22.8634 199.751 23.4501C198.878 24.0368 197.826 24.3301 196.594 24.3301ZM208.659 24.3301C207.478 24.3301 206.459 24.0624 205.601 23.5271C204.75 22.9918 204.094 22.2511 203.632 21.3051C203.17 20.3591 202.939 19.2738 202.939 18.0491C202.939 16.8024 203.173 15.7098 203.643 14.7711C204.112 13.8324 204.776 13.1028 205.634 12.5821C206.492 12.0541 207.5 11.7901 208.659 11.7901C209.847 11.7901 210.87 12.0578 211.728 12.5931C212.586 13.1211 213.242 13.8581 213.697 14.8041C214.159 15.7428 214.39 16.8244 214.39 18.0491C214.39 19.2884 214.159 20.3811 213.697 21.3271C213.235 22.2658 212.575 23.0028 211.717 23.5381C210.859 24.0661 209.839 24.3301 208.659 24.3301ZM208.659 22.4711C209.891 22.4711 210.807 22.0604 211.409 21.2391C212.01 20.4178 212.311 19.3544 212.311 18.0491C212.311 16.7071 212.006 15.6401 211.398 14.8481C210.789 14.0488 209.876 13.6491 208.659 13.6491C207.83 13.6491 207.148 13.8361 206.613 14.2101C206.077 14.5841 205.678 15.1011 205.414 15.7611C205.15 16.4211 205.018 17.1838 205.018 18.0491C205.018 19.3838 205.326 20.4544 205.942 21.2611C206.558 22.0678 207.463 22.4711 208.659 22.4711ZM231.012 24.0001L231.023 16.3991C231.023 15.5118 230.785 14.8188 230.308 14.3201C229.839 13.8141 229.227 13.5611 228.471 13.5611C228.031 13.5611 227.613 13.6638 227.217 13.8691C226.821 14.0671 226.499 14.3824 226.249 14.8151C226 15.2404 225.875 15.7868 225.875 16.4541L224.841 16.0361C224.827 15.1928 224.999 14.4558 225.358 13.8251C225.725 13.1871 226.224 12.6921 226.854 12.3401C227.485 11.9881 228.196 11.8121 228.988 11.8121C230.228 11.8121 231.203 12.1898 231.914 12.9451C232.626 13.6931 232.981 14.7014 232.981 15.9701L232.97 24.0001H231.012ZM216.8 24.0001V12.1201H218.549V15.2991H218.769V24.0001H216.8ZM223.917 24.0001L223.928 16.4761C223.928 15.5668 223.694 14.8554 223.224 14.3421C222.755 13.8214 222.132 13.5611 221.354 13.5611C220.584 13.5611 219.961 13.8251 219.484 14.3531C219.008 14.8811 218.769 15.5814 218.769 16.4541L217.735 15.8381C217.735 15.0681 217.919 14.3788 218.285 13.7701C218.652 13.1614 219.151 12.6848 219.781 12.3401C220.412 11.9881 221.127 11.8121 221.926 11.8121C222.726 11.8121 223.422 11.9808 224.016 12.3181C224.61 12.6554 225.069 13.1394 225.391 13.7701C225.714 14.3934 225.875 15.1378 225.875 16.0031L225.864 24.0001H223.917ZM240.887 24.3301C239.721 24.3301 238.702 24.0734 237.829 23.5601C236.964 23.0394 236.289 22.3171 235.805 21.3931C235.321 20.4618 235.079 19.3764 235.079 18.1371C235.079 16.8391 235.318 15.7171 235.794 14.7711C236.271 13.8178 236.935 13.0844 237.785 12.5711C238.643 12.0504 239.648 11.7901 240.799 11.7901C241.995 11.7901 243.01 12.0651 243.846 12.6151C244.69 13.1651 245.32 13.9498 245.738 14.9691C246.164 15.9884 246.347 17.2021 246.288 18.6101H244.308V17.9061C244.286 16.4468 243.989 15.3578 243.417 14.6391C242.845 13.9131 241.995 13.5501 240.865 13.5501C239.655 13.5501 238.735 13.9388 238.104 14.7161C237.474 15.4934 237.158 16.6081 237.158 18.0601C237.158 19.4608 237.474 20.5461 238.104 21.3161C238.735 22.0861 239.633 22.4711 240.799 22.4711C241.584 22.4711 242.266 22.2914 242.845 21.9321C243.425 21.5728 243.879 21.0558 244.209 20.3811L246.09 21.0301C245.628 22.0788 244.932 22.8928 244 23.4721C243.076 24.0441 242.039 24.3301 240.887 24.3301ZM236.498 18.6101V17.0371H245.276V18.6101H236.498Z"
      fill="#E3935B"></path>
    <path
      d="M257.223 24.0002V10.0192H251.822V8.16016H264.582V10.0192H259.181V24.0002H257.223ZM265.237 24.0002V12.1202H266.986V14.9912L266.7 14.6172C266.84 14.2505 267.019 13.9132 267.239 13.6052C267.467 13.2972 267.72 13.0442 267.998 12.8462C268.306 12.5969 268.655 12.4062 269.043 12.2742C269.432 12.1422 269.828 12.0652 270.231 12.0432C270.635 12.0139 271.012 12.0395 271.364 12.1202V13.9572C270.954 13.8472 270.503 13.8179 270.011 13.8692C269.52 13.9205 269.065 14.1002 268.647 14.4082C268.266 14.6795 267.969 15.0095 267.756 15.3982C267.551 15.7869 267.408 16.2085 267.327 16.6632C267.247 17.1105 267.206 17.5689 267.206 18.0382V24.0002H265.237ZM276.435 24.3302C275.547 24.3302 274.803 24.1689 274.202 23.8462C273.608 23.5162 273.157 23.0835 272.849 22.5482C272.548 22.0129 272.398 21.4262 272.398 20.7882C272.398 20.1649 272.515 19.6259 272.75 19.1712C272.992 18.7092 273.329 18.3279 273.762 18.0272C274.194 17.7192 274.711 17.4772 275.313 17.3012C275.877 17.1472 276.508 17.0152 277.205 16.9052C277.909 16.7879 278.62 16.6815 279.339 16.5862C280.057 16.4909 280.728 16.3992 281.352 16.3112L280.648 16.7182C280.67 15.6622 280.457 14.8812 280.01 14.3752C279.57 13.8692 278.807 13.6162 277.722 13.6162C277.003 13.6162 276.372 13.7812 275.83 14.1112C275.294 14.4339 274.917 14.9619 274.697 15.6952L272.838 15.1342C273.124 14.0929 273.677 13.2752 274.499 12.6812C275.32 12.0872 276.402 11.7902 277.744 11.7902C278.822 11.7902 279.746 11.9845 280.516 12.3732C281.293 12.7545 281.85 13.3339 282.188 14.1112C282.356 14.4779 282.463 14.8775 282.507 15.3102C282.551 15.7355 282.573 16.1829 282.573 16.6522V24.0002H280.835V21.1512L281.242 21.4152C280.794 22.3759 280.167 23.1019 279.361 23.5932C278.561 24.0845 277.586 24.3302 276.435 24.3302ZM276.732 22.6912C277.436 22.6912 278.044 22.5665 278.558 22.3172C279.078 22.0605 279.496 21.7269 279.812 21.3162C280.127 20.8982 280.332 20.4435 280.428 19.9522C280.538 19.5855 280.596 19.1785 280.604 18.7312C280.618 18.2765 280.626 17.9282 280.626 17.6862L281.308 17.9832C280.67 18.0712 280.043 18.1555 279.427 18.2362C278.811 18.3169 278.228 18.4049 277.678 18.5002C277.128 18.5882 276.633 18.6945 276.193 18.8192C275.87 18.9219 275.566 19.0539 275.28 19.2152C275.001 19.3765 274.774 19.5855 274.598 19.8422C274.429 20.0915 274.345 20.4032 274.345 20.7772C274.345 21.0999 274.425 21.4079 274.587 21.7012C274.755 21.9945 275.012 22.2329 275.357 22.4162C275.709 22.5995 276.167 22.6912 276.732 22.6912ZM290.438 24.3302C289.235 24.3302 288.212 24.0625 287.369 23.5272C286.533 22.9845 285.895 22.2402 285.455 21.2942C285.015 20.3482 284.787 19.2702 284.773 18.0602C284.787 16.8209 285.018 15.7319 285.466 14.7932C285.92 13.8472 286.569 13.1102 287.413 12.5822C288.256 12.0542 289.272 11.7902 290.46 11.7902C291.714 11.7902 292.792 12.0982 293.694 12.7142C294.603 13.3302 295.212 14.1735 295.52 15.2442L293.584 15.8272C293.334 15.1379 292.927 14.6025 292.363 14.2212C291.805 13.8399 291.164 13.6492 290.438 13.6492C289.624 13.6492 288.953 13.8399 288.425 14.2212C287.897 14.5952 287.504 15.1159 287.248 15.7832C286.991 16.4432 286.859 17.2022 286.852 18.0602C286.866 19.3802 287.171 20.4472 287.765 21.2612C288.366 22.0679 289.257 22.4712 290.438 22.4712C291.215 22.4712 291.86 22.2952 292.374 21.9432C292.887 21.5839 293.276 21.0669 293.54 20.3922L295.52 20.9092C295.109 22.0165 294.467 22.8635 293.595 23.4502C292.722 24.0369 291.67 24.3302 290.438 24.3302ZM297.754 24.0002L297.765 8.16016H299.745V17.8402L304.728 12.1202H307.269L302.022 18.0602L307.885 24.0002H305.146L299.745 18.2802V24.0002H297.754Z"
      fill="black"></path>
    <path d="M133.5 0V31" stroke="#B7B7B7"></path>
  </g>
  <defs>
    <clipPath id="clip0_217_53">
      <rect width="308" height="31" fill="white"></rect>
    </clipPath>
  </defs>
</svg>
