<svg viewBox="0 0 88 24" fill="none" xmlns="http://www.w3.org/2000/svg" preserveAspectRatio="none">
  <g clip-path="url(#clip0_217_669)">
    <path
      d="M44.0985 5.62589V19.1743C44.0985 19.2775 44.0212 19.3807 43.8925 19.3807H42.4758C41.8318 19.3807 41.2136 19.0452 40.8529 18.5033L34.4649 8.61941L34.6709 13.5485V19.2001C34.6709 19.3033 34.5936 19.4066 34.4649 19.4066H32.6103C32.5072 19.4066 32.4042 19.3291 32.4042 19.2001V5.62589C32.4042 5.52266 32.4814 5.41943 32.6103 5.41943H34.0012C34.6452 5.41943 35.2633 5.75492 35.624 6.29685L42.0121 16.1549L41.806 11.2259V5.62589C41.806 5.52266 41.8833 5.41943 42.0121 5.41943H43.8667C44.0212 5.41943 44.0985 5.49685 44.0985 5.62589Z"
      fill="currentColor"></path>
    <path
      d="M63.108 19.3549H61.1504C61.0216 19.3549 60.9185 19.2259 60.97 19.0969L66.1733 5.60008C66.2248 5.49685 66.3278 5.41943 66.4309 5.41943H68.9037C69.0324 5.41943 69.1355 5.49685 69.1612 5.60008L74.3902 19.0969C74.4417 19.2259 74.3387 19.3549 74.2099 19.3549H72.2523C72.175 19.3549 72.0978 19.3033 72.0719 19.2259L67.8733 8.12911C67.8218 7.97427 67.5642 7.97427 67.5127 8.12911L63.3141 19.2259C63.2625 19.3033 63.1853 19.3549 63.108 19.3549Z"
      fill="currentColor"></path>
    <path
      d="M88.0422 19.0452L84.1268 14.0388C86.3423 13.6259 87.6304 12.1291 87.6304 9.83234C87.6304 7.20008 85.9304 5.41943 82.8905 5.41943H77.4296C77.2751 5.41943 77.1465 5.54847 77.1465 5.70331C77.1465 6.73556 77.9705 7.56137 79.0013 7.56137H82.6842C84.5132 7.56137 85.3895 8.49043 85.3895 9.85812C85.3895 11.2259 84.5395 12.1549 82.6842 12.1549H77.4814C77.3268 12.1549 77.1979 12.284 77.1979 12.4388V19.1484C77.1979 19.2517 77.2751 19.3549 77.4041 19.3549H79.2587C79.3614 19.3549 79.465 19.2775 79.465 19.1484V14.1678H81.6023L85.0031 18.6065C85.3632 19.0969 85.9304 19.3549 86.5486 19.3549H87.965C88.0677 19.3549 88.145 19.1743 88.0422 19.0452Z"
      fill="currentColor"></path>
    <path
      d="M57.2354 5.41943H48.6063C48.4518 5.41943 48.3487 5.52266 48.3487 5.6775C48.3487 6.70976 49.1988 7.56137 50.229 7.56137H57.2354C57.3384 7.56137 57.4415 7.48395 57.4415 7.35492V5.60008C57.4157 5.49685 57.3384 5.41943 57.2354 5.41943ZM57.2354 17.213H50.7958C50.6928 17.213 50.5897 17.1355 50.5897 17.0066V13.5227C50.5897 13.4194 50.667 13.3162 50.7958 13.3162H56.746C56.849 13.3162 56.9521 13.2388 56.9521 13.1097V11.3549C56.9521 11.2517 56.8748 11.1485 56.746 11.1485H48.6321C48.4775 11.1485 48.3487 11.2775 48.3487 11.4324V19.0452C48.3487 19.2001 48.4775 19.3291 48.6321 19.3291H57.2354C57.3384 19.3291 57.4415 19.2517 57.4415 19.1227V17.3678C57.4157 17.2904 57.3384 17.213 57.2354 17.213Z"
      fill="currentColor"></path>
    <path
      d="M18.5976 1.96126L13.755 9.16124C13.4202 9.65162 14.0641 10.2451 14.5277 9.83223L19.2931 5.67739C19.4219 5.57417 19.6022 5.65159 19.6022 5.83223V18.8129C19.6022 18.9935 19.3703 19.0709 19.2673 18.9419L4.84259 1.65159C4.37894 1.08385 3.70922 0.77417 2.96223 0.77417H2.44706C1.10761 0.77417 0 1.88384 0 3.25159V21.5226C0 22.8903 1.10761 24 2.47281 24C3.32284 24 4.12136 23.5612 4.58501 22.8129L9.42758 15.6129C9.76248 15.1225 9.11849 14.529 8.65485 14.9419L3.88953 19.0709C3.76073 19.1742 3.58042 19.0968 3.58042 18.9161V5.96127C3.58042 5.78062 3.81225 5.7032 3.91529 5.83223L18.34 23.1226C18.8037 23.6903 19.4992 24 20.2204 24H20.7356C22.1008 24 23.2084 22.8903 23.2084 21.5226V3.25159C23.1826 1.88384 22.075 0.77417 20.7098 0.77417C19.8598 0.77417 19.0612 1.21288 18.5976 1.96126Z"
      fill="currentColor"></path>
  </g>
  <defs>
    <clipPath id="clip0_217_669">
      <rect width="88" height="24" fill="white"></rect>
    </clipPath>
  </defs>
</svg>
