<svg width="24" height="24" viewBox="0 0 24 24" fill="none" xmlns="http://www.w3.org/2000/svg">
	<path id="search" fill-rule="evenodd" clip-rule="evenodd" d="M10.0586 1.67442C5.42817 1.67442 1.67442 5.42817 1.67442 10.0586C1.67442 14.6891 5.42817 18.4429 10.0586 18.4429C14.6891 18.4429 18.4429 14.6891 18.4429 10.0586C18.4429 5.42817 14.6891 1.67442 10.0586 1.67442ZM0 10.0586C0 4.50341 4.50341 0 10.0586 0C15.6139 0 20.1173 4.50341 20.1173 10.0586C20.1173 12.5507 19.2111 14.831 17.7102 16.5882C17.7898 16.6276 17.8644 16.6804 17.9307 16.7467L23.7548 22.5708C24.0817 22.8977 24.0817 23.4278 23.7548 23.7548C23.4278 24.0817 22.8977 24.0817 22.5708 23.7548L16.7467 17.9307C16.6804 17.8644 16.6276 17.7898 16.5882 17.7102C14.831 19.2111 12.5507 20.1173 10.0586 20.1173C4.50341 20.1173 0 15.6139 0 10.0586Z" fill="#A9A9A9" />
</svg>
	