<svg width="19" height="18" viewBox="0 0 19 18" fill="none" xmlns="http://www.w3.org/2000/svg">
	<path d="M0 9.5625C-3.58425e-09 9.34089 0.047377 9.12146 0.139426 8.91672C0.231474 8.71198 0.366392 8.52596 0.536476 8.36926C0.70656 8.21256 0.908479 8.08826 1.1307 8.00345C1.35293 7.91865 1.59111 7.875 1.83164 7.875C2.07218 7.875 2.31036 7.91865 2.53258 8.00345C2.75481 8.08826 2.95673 8.21256 3.12681 8.36926C3.2969 8.52596 3.43181 8.71198 3.52386 8.91672C3.61591 9.12146 3.66329 9.34089 3.66329 9.5625V16.3125C3.66329 16.7601 3.47031 17.1893 3.12681 17.5057C2.78331 17.8222 2.31743 18 1.83164 18C1.34586 18 0.879976 17.8222 0.536476 17.5057C0.192976 17.1893 7.23872e-09 16.7601 0 16.3125V9.5625ZM4.88438 9.37463V15.4834C4.88417 15.9015 5.01043 16.3114 5.24898 16.6671C5.48753 17.0228 5.82894 17.3102 6.23492 17.4971L6.29597 17.5252C6.97354 17.8372 7.72059 17.9998 8.47807 18H15.0915C15.6563 18.0002 16.2037 17.8201 16.6406 17.4902C17.0774 17.1604 17.3766 16.7013 17.4873 16.191L18.9526 9.441C19.0234 9.11461 19.0148 8.7778 18.9272 8.45487C18.8397 8.13194 18.6755 7.83092 18.4464 7.57351C18.2174 7.31611 17.9292 7.10873 17.6027 6.96632C17.2761 6.82392 16.9193 6.75003 16.5581 6.75H12.211V2.25C12.211 1.65326 11.9537 1.08097 11.4957 0.65901C11.0377 0.237053 10.4165 0 9.76877 0C9.44491 0 9.13432 0.118526 8.90532 0.329505C8.67632 0.540483 8.54767 0.826631 8.54767 1.125V1.87538C8.54767 2.84904 8.2049 3.79644 7.5708 4.57538L5.86126 6.67462C5.22716 7.45356 4.88438 8.40096 4.88438 9.37463Z" fill="#E7E7E7" />
</svg>