<svg viewBox="0 0 19 18" fill="none" xmlns="http://www.w3.org/2000/svg">
	<path
		d="M19 8.4375C19 8.65911 18.9526 8.87854 18.8606 9.08328C18.7685 9.28802 18.6336 9.47404 18.4635 9.63074C18.2934 9.78744 18.0915 9.91174 17.8693 9.99655C17.6471 10.0814 17.4089 10.125 17.1684 10.125C16.9278 10.125 16.6896 10.0814 16.4674 9.99655C16.2452 9.91174 16.0433 9.78744 15.8732 9.63074C15.7031 9.47404 15.5682 9.28802 15.4761 9.08328C15.3841 8.87854 15.3367 8.65911 15.3367 8.4375L15.3367 1.6875C15.3367 1.23995 15.5297 0.810728 15.8732 0.494261C16.2167 0.177791 16.6826 1.73008e-06 17.1684 1.76724e-06C17.6541 1.8044e-06 18.12 0.177792 18.4635 0.494261C18.807 0.810728 19 1.23995 19 1.6875L19 8.4375ZM14.1156 8.62538L14.1156 2.51663C14.1158 2.09851 13.9896 1.6886 13.751 1.3329C13.5125 0.977201 13.1711 0.689777 12.7651 0.502878L12.704 0.474752C12.0265 0.162755 11.2794 0.000222569 10.5219 1.25882e-06L3.90847 7.52923e-07C3.34368 -0.000205284 2.79627 0.179948 2.35945 0.509783C1.92262 0.839619 1.62338 1.29875 1.51269 1.809L0.047368 8.559C-0.0234442 8.88539 -0.0147696 9.2222 0.0727605 9.54513C0.160292 9.86806 0.3245 10.1691 0.55355 10.4265C0.782601 10.6839 1.07079 10.8913 1.39734 11.0337C1.72388 11.1761 2.08065 11.25 2.44194 11.25L6.78904 11.25L6.78904 15.75C6.78904 16.3467 7.04634 16.919 7.50434 17.341C7.96234 17.7629 8.58352 18 9.23123 18C9.55509 18 9.86568 17.8815 10.0947 17.6705C10.3237 17.4595 10.4523 17.1734 10.4523 16.875L10.4523 16.1246C10.4523 15.151 10.7951 14.2036 11.4292 13.4246L13.1387 11.3254C13.7728 10.5464 14.1156 9.59904 14.1156 8.62538Z"
		fill="currentColor" />
</svg>
